<svg width="42" height="37" viewBox="0 0 42 37" fill="none" xmlns="http://www.w3.org/2000/svg">
<path d="M30.2083 0C24.1771 0 20.8333 4.35417 20.8333 4.35417C20.8333 4.35417 17.4896 0 11.4583 0C5.12917 0 0 5.12917 0 11.4583C0 20.1479 10.2333 28.5687 13.0854 31.2292C14.7302 32.7623 16.6699 34.5148 18.1971 35.8827C19.6992 37.2281 21.9675 37.2281 23.4696 35.8827C24.9968 34.5148 26.9365 32.7623 28.5812 31.2292C31.4333 28.5687 41.6667 20.1479 41.6667 11.4583C41.6667 5.12917 36.5375 0 30.2083 0Z" fill="red"/>
<path fill-rule="evenodd" clip-rule="evenodd" d="M19.4096 2.93638C20.3466 3.72036 20.8333 4.35417 20.8333 4.35417C20.8333 4.35417 21.3201 3.72036 22.2571 2.93638C23.776 1.6655 26.4782 0 30.2083 0C36.5375 0 41.6667 5.12917 41.6667 11.4583C41.6667 19.3852 33.151 27.0884 29.491 30.3992C29.1388 30.7177 28.8316 30.9956 28.5812 31.2292C26.9365 32.7623 24.9968 34.5148 23.4696 35.8827C21.9675 37.2281 19.6992 37.2281 18.1971 35.8827C16.6699 34.5148 14.7302 32.7623 13.0854 31.2292C12.8351 30.9956 12.5279 30.7177 12.1757 30.3992C8.5157 27.0884 0 19.3852 0 11.4583C0 5.12917 5.12917 0 11.4583 0C15.1885 0 17.8907 1.6655 19.4096 2.93638ZM14.4496 29.7667C16.0798 31.2862 18.0077 33.0281 19.5315 34.3929C20.274 35.0581 21.3926 35.0581 22.1352 34.3929C23.6589 33.0281 25.5869 31.2862 27.217 29.7667M27.2175 29.7662C27.4902 29.5119 27.8154 29.2175 28.182 28.8856C29.8434 27.3816 32.3531 25.1097 34.6524 22.3299C37.4976 18.8902 39.6667 15.0756 39.6667 11.4583C39.6667 6.23374 35.4329 2 30.2083 2C27.6949 2 25.7383 2.90349 24.389 3.82733C23.7139 4.28954 23.2019 4.75003 22.8651 5.0872C22.6974 5.25512 22.5752 5.39041 22.5 5.47712C22.4625 5.52041 22.4369 5.55136 22.4234 5.56796L22.4136 5.58013L20.8333 7.63787L19.2531 5.58013L19.2433 5.56796C19.2298 5.55136 19.2042 5.52041 19.1667 5.47712C19.0915 5.39041 18.9693 5.25512 18.8016 5.0872C18.4648 4.75003 17.9527 4.28954 17.2777 3.82733C15.9284 2.90349 13.9718 2 11.4583 2C6.23374 2 2 6.23374 2 11.4583C2 15.0756 4.16911 18.8902 7.0143 22.3299C9.31358 25.1097 11.8232 27.3816 13.4847 28.8857C13.8513 29.2175 14.1765 29.5119 14.4491 29.7662M22.4123 5.58175L22.4123 5.58172Z" fill="red"/>
</svg>
